<svg id="ART" xmlns="http://www.w3.org/2000/svg" viewBox="0 0 48 48"><defs><style>.cls-1{fill:#fff;}.cls-2{fill:#047268;}</style></defs><title>FINAL_6_Authentication &amp;amp; Authorization</title><path class="cls-1" d="M33.44,21.45H14.56a3.32,3.32,0,0,0-3.32,3.31V38.55a3.32,3.32,0,0,0,3.32,3.31H33.44a3.32,3.32,0,0,0,3.32-3.31V24.76A3.32,3.32,0,0,0,33.44,21.45ZM26.15,32.29a1.5,1.5,0,0,0-.31.94v.41a1.84,1.84,0,1,1-3.68,0v-.41a1.48,1.48,0,0,0-.3-.93,2.75,2.75,0,1,1,4.9-1.72A2.7,2.7,0,0,1,26.15,32.29Z"/><path class="cls-2" d="M14.56,21.45H17.9V16.31a6.1,6.1,0,0,1,12.2,0v5.14h3.34a3.4,3.4,0,0,1,.73.08V16.31a10.17,10.17,0,0,0-20.34,0v5.22A3.4,3.4,0,0,1,14.56,21.45Z"/><path class="cls-2" d="M22.16,33.64a1.84,1.84,0,1,0,3.68,0v-.41a1.5,1.5,0,0,1,.31-.94,2.7,2.7,0,0,0,.61-1.71,2.76,2.76,0,1,0-4.9,1.72,1.48,1.48,0,0,1,.3.93Z"/></svg>