<svg id="ART" xmlns="http://www.w3.org/2000/svg" viewBox="0 0 48 48"><defs><style>.cls-1{fill:#047268;}.cls-2{fill:#353740;}</style></defs><title>FINAL_6_Authentication &amp;amp; Authorization</title><path class="cls-1" d="M34.17,25.45H13.83V16.31a10.17,10.17,0,0,1,20.34,0ZM17.9,23.08H30.1V16.31a6.1,6.1,0,0,0-12.2,0Z"/><path class="cls-2" d="M33.44,21.45H14.56a3.32,3.32,0,0,0-3.32,3.31V38.55a3.32,3.32,0,0,0,3.32,3.31H33.44a3.32,3.32,0,0,0,3.32-3.31V24.76A3.32,3.32,0,0,0,33.44,21.45ZM26.15,32.29a1.5,1.5,0,0,0-.31.94v.41a1.84,1.84,0,1,1-3.68,0v-.41a1.48,1.48,0,0,0-.3-.93,2.75,2.75,0,1,1,4.9-1.72A2.7,2.7,0,0,1,26.15,32.29Z"/></svg>
