<svg id="ART" xmlns="http://www.w3.org/2000/svg" viewBox="0 0 48 48"><defs><style>.cls-1{fill:#047268;}.cls-2{fill:#353740;}</style></defs><title>FINAL_10_Index pattern</title><path class="cls-1" d="M13.24,11.64h21a2.09,2.09,0,0,1,2.09,2.09V25.85a0,0,0,0,1,0,0H11.64a0,0,0,0,1,0,0V13.24A1.6,1.6,0,0,1,13.24,11.64Z"/><path class="cls-2" d="M15.45,17.52l-.17-.93a1.48,1.48,0,0,0-1.47-1.24H10.26a2.87,2.87,0,0,0-2.82,3.36l2.9,16.41a1.5,1.5,0,0,0,1.47,1.24H36.49A1.49,1.49,0,0,0,38,35.12l2.61-14.76a2.17,2.17,0,0,0-2.14-2.54H15.8A.35.35,0,0,1,15.45,17.52Z"/></svg>