<svg xmlns="http://www.w3.org/2000/svg" width="86" height="117">
  <path fill="#ffffff" d="M49.496 108.407c9.703 0 17.693 2.648 23.118 7.74h14.4c-1.215-.996-2.416-2.321-3.455-3.945-1.606-2.512-2.834-5.734-3.145-9.598v-9.651c-2.618-4.014-6.734-7.195-12.686-9.639l-4.264-1.775c-3.387-1.433-7.315-3.208-7.315-6.184 0-2.648 2.726-3.645 6.006-3.645 7.544 0 13.779 3.317 18.26 9.952V61.321c0-1.734-.15-3.372-.379-4.956-2.105-14.799-13.765-22.676-30.553-22.676-18.462 0-30.487 9.952-30.487 28.41v40.519c-.364 6.635-3.441 10.949-6.626 13.543h14.494c5.33-5.079 13.118-7.741 22.619-7.741l.013-.013Z"/>
  <path fill="#ffffff" d="M72.048 5.539C69.645 3.805 58.039-.36 45.515.214 10.4 1.825-4.432 31.696 1.142 52.584c1.849 6.921 4.94 12.805 8.988 17.46-.202-.819-.405-1.624-.526-2.416-2.618-16.669 3.873-29.502 15.56-38.007 13.577-9.87 33.118-6.662 36.735-5.406l10.135-18.69.014.014Z"/>
</svg>
