<?xml version="1.0" encoding="UTF-8"?>
<svg width="400px" height="400px" viewBox="0 0 400 400" version="1.1" xmlns="http://www.w3.org/2000/svg" xmlns:xlink="http://www.w3.org/1999/xlink">
    <title>logo-green</title>
    <g id="220523" stroke="none" stroke-width="1" fill="none" fill-rule="evenodd">
        <g id="logo-green" fill="#064F38">
            <path d="M134.607377,200.396 C142.145902,194.4344 149.857377,189.0416 157.730328,184.2096 C172.931967,190.8256 188.487705,196.0736 204.45082,200 C188.22541,203.9912 172.422951,209.3544 156.982787,216.124 C149.368852,211.4104 141.907377,206.1688 134.607377,200.396 M281.048361,302.5168 C222.809836,302.5168 169.015574,286.7464 120.959016,255.6184 C132.416393,248.1528 144.063115,241.6048 155.927869,235.9424 C189.865574,255.0864 226.580328,264.7664 265.586066,264.7664 C270.530328,264.7664 274.537705,260.8528 274.537705,256.0248 C274.537705,251.1968 270.530328,247.2832 265.586066,247.2832 C234.322131,247.2832 204.608197,240.484 176.745082,227.0016 C208.815574,214.7632 242.560656,208.7416 278.606557,208.7416 C283.241803,208.7416 287.054098,205.3016 287.512295,200.8936 C287.542623,200.6 287.558197,200.3016 287.558197,200 C287.558197,195.172 283.55082,191.2584 278.606557,191.2584 C242.909836,191.2584 209.471311,185.3488 177.680328,173.348 C205.272951,160.164 234.670492,153.5088 265.586066,153.5088 C270.530328,153.5088 274.537705,149.5952 274.537705,144.7672 C274.537705,139.9392 270.530328,136.0256 265.586066,136.0256 C226.871311,136.0256 190.413934,145.5616 156.687705,164.4216 C144.560656,158.6776 132.661475,152.0072 120.959016,144.3816 C169.015574,113.2536 222.809836,97.4832 281.048361,97.4832 C285.991803,97.4832 290,93.5696 290,88.7416 C290,83.9136 285.991803,80 281.048361,80 C214.704098,80 153.796721,99.2752 100.017213,137.2896 L90,144.3704 L100.017213,151.452 C112.803279,160.4896 125.805738,168.424 139.060656,175.2984 C130.8,180.888 122.714754,187.0568 114.821311,193.828 L107.164754,200.396 L114.821311,206.964 C122.504098,213.5544 130.369672,219.5728 138.40082,225.044 C125.37377,231.8392 112.590984,239.6608 100.017213,248.548 L90,255.6296 L100.017213,262.7104 C153.796721,300.7256 214.704098,320 281.048361,320 C285.991803,320 290,316.0864 290,311.2584 C290,306.4304 285.991803,302.5168 281.048361,302.5168" id="eliatra-logo"></path>
        </g>
    </g>
</svg>