<?xml version="1.0" encoding="utf-8"?>
<!-- Generator: Adobe Illustrator 12.0.0, SVG Export Plug-In . SVG Version: 6.00 Build 51448)  -->
<!DOCTYPE svg PUBLIC "-//W3C//DTD SVG 1.1//EN" "http://www.w3.org/Graphics/SVG/1.1/DTD/svg11.dtd" [
	<!ENTITY ns_svg "http://www.w3.org/2000/svg">
	<!ENTITY ns_xlink "http://www.w3.org/1999/xlink">
]>
<svg  version="1.1" id="Ebene_1" xmlns="&ns_svg;" xmlns:xlink="&ns_xlink;" width="250" height="250"
	 viewBox="180.5 270.5 250 250" overflow="visible" enable-background="new 180.5 270.5 250 250" xml:space="preserve">
<desc  iVinci="yes" snapToGrid="no" version="4.6" codePlatform="0" showGrid="no" gridStep="20"></desc>
<g>
	<g id="Shape1">
		
			<desc  mesh="" flag="" markerEnd="0" pers-start="0,0" shadowEnabled="0" font-alignment="1" blurEnabled="0" font-underline="0" type="0" text="" basicInfo-basicType="0" pers-center="0,0" strokeStyle="0" blurRadius="4" font-pixelSize="20" shadowBlur="4" pers-size="0,0" basicInfo-roundedRectRadius="12" font-bold="0" pers-end="0,0" bounding="rect(-58.75,-34.0056,117.5,68.0112)" basicInfo-polygonSides="6" locked="0" basicInfo-starPoints="5" font-familyName="" markerStart="0" shadowOffsetY="2" shapeID="1" shadowOpacity="160" shadowOffsetX="0" transform="matrix(1,0,0,1,58.75,34.0056)">
			</desc>
		<path id="shapePath1" fill="#FFFFFF" d="M396.516,299.536c-46.573-45.399-169.639-45.272-190.016,56.749
			c0,0,21.669-2.9,34.122-20.556c18.271-26.104,72.935-45.525,115.463-21.817c5.338-9.08,17.144-15.51,30.726-15.51
			C390.207,298.402,393.442,298.907,396.516,299.536z"/>
	</g>
	<g id="Shape2">
		
			<desc  mesh="" flag="" markerEnd="0" pers-start="0,0" shadowEnabled="0" font-alignment="1" blurEnabled="0" font-underline="0" type="0" text="" basicInfo-basicType="0" pers-center="0,0" strokeStyle="0" blurRadius="4" font-pixelSize="20" shadowBlur="4" pers-size="0,0" basicInfo-roundedRectRadius="12" font-bold="0" pers-end="0,0" bounding="rect(-29.4,-10.1507,58.8,20.3014)" basicInfo-polygonSides="6" locked="0" basicInfo-starPoints="5" font-familyName="" markerStart="0" shadowOffsetY="2" shapeID="2" shadowOpacity="160" shadowOffsetX="0" transform="matrix(1,0,0,1,62.1,39.2605)">
			</desc>
		<path id="shapePath2" fill="#FFFFFF" d="M354.143,317.571c-46.892-25.98-94.601,5.17-94.601,5.17c0,4.286-0.162,8.702-0.162,8.702
			c7.763-4.54,31.213-12.359,58.541-6.937c-0.164-2.522,0-8.071,0-8.071s18.437,3.91,36.547,16.394
			c-0.967-2.522-1.614-5.296-1.614-8.072C352.852,322.361,353.336,319.966,354.143,317.571z"/>
	</g>
	<g id="Shape3">
		
			<desc  mesh="" flag="" markerEnd="0" pers-start="0,0" shadowEnabled="0" font-alignment="1" blurEnabled="0" font-underline="0" type="0" text="" basicInfo-basicType="0" pers-center="0,0" strokeStyle="0" blurRadius="4" font-pixelSize="20" shadowBlur="4" pers-size="0,0" basicInfo-roundedRectRadius="12" font-bold="0" pers-end="0,0" bounding="rect(-31.2473,-51.1967,62.4946,102.393)" basicInfo-polygonSides="6" locked="0" basicInfo-starPoints="5" font-familyName="" markerStart="0" shadowOffsetY="2" shapeID="3" shadowOpacity="160" shadowOffsetX="0" transform="matrix(1,0,0,1,38.7473,95.6145)">
			</desc>
		<path id="shapePath3" fill="#FFFFFF" d="M288.328,396.262c0,0,32.504-24.592,29.429-67.72
			c-30.077-7.189-85.544,4.287-81.985,44.514c4.689,54.606-17.144,61.793-17.144,61.793c25.23,13.243,52.396-4.918,99.619,20.81
			C327.625,421.735,288.328,396.262,288.328,396.262z"/>
	</g>
	<g id="Shape4">
		
			<desc  mesh="" flag="" markerEnd="0" pers-start="0,0" shadowEnabled="0" font-alignment="1" blurEnabled="0" font-underline="0" type="0" text="" basicInfo-basicType="0" pers-center="0,0" strokeStyle="0" blurRadius="4" font-pixelSize="20" shadowBlur="4" pers-size="0,0" basicInfo-roundedRectRadius="12" font-bold="0" pers-end="0,0" bounding="rect(-26.3336,-79.15,52.6672,158.3)" basicInfo-polygonSides="6" locked="0" basicInfo-starPoints="5" font-familyName="" markerStart="0" shadowOffsetY="2" shapeID="4" shadowOpacity="160" shadowOffsetX="0" transform="matrix(1,0,0,1,80.2336,120.261)">
			</desc>
		<path id="shapePath4" fill="#FFFFFF" d="M324.714,322.361c2.911,48.048-31.051,73.521-31.051,73.521s45.282,29.51,26.038,69.613
			c10.671,2.396,30.239,56.494,30.239,56.494c0.483-0.503-2.912-50.947,7.278-66.457c0,0-3.884-4.034-4.207-4.665
			c7.923-22.321,5.177-35.563,2.588-39.728c-2.913-4.538-3.232-4.412-7.764-4.666c-4.526-0.249-8.406-0.627-11.967-1.387
			c-9.378-1.89-11.318-3.655-11.969-7.816c-0.806-4.666,4.372-6.809,14.396-5.675c11.481,1.389,23.931,5.422,28.302,10.592
			c0.32,1.137-4.689,24.969-4.205,25.598c1.778,2.146,4.851,6.436,4.851,6.436C379.533,389.706,398.294,348.971,324.714,322.361z"/>
	</g>
</g>
</svg>
