<svg width="28" height="46" xmlns="http://www.w3.org/2000/svg">
 <defs>
  <style>.logo_svg__cls-1 {
        padding: 0.1em;
        fill: #047268;
      }</style>
 </defs>
 <g>
  <title>background</title>
  <rect fill="none" id="canvas_background" height="48" width="30" y="-1" x="-1"/>
 </g>
 <g>
  <title>Layer 1</title>
  <path id="svg_1" d="m26.928571,5.971099c-6.39,-8 -23.25,-8 -26,10a7.13,7.13 0 0 0 4.67,-3.61c2.5,-4.59 10,-8 15.83,-3.84a4.64,4.64 0 0 1 4.22,-2.72a4.51,4.51 0 0 1 1.33,0.2" class="logo_svg__cls-1"/>
  <path id="svg_2" d="m21.138571,9.141099c-6.43,-4.56 -13,0.91 -13,0.91c0,0.75 0,1.53 0,1.53a10.22,10.22 0 0 1 8,-1.22c0,-0.43 0,-1.41 0,-1.41a14.1,14.1 0 0 1 5,2.88a4.74,4.74 0 0 1 -0.22,-1.42a4.43,4.43 0 0 1 0.18,-1.27" class="logo_svg__cls-1"/>
  <path id="svg_3" d="m12.108571,22.961099a16,16 0 0 0 4,-11.9c-4.08,-1.26 -11.68,0.75 -11.21,7.84c0.64,9.59 -2.34,10.86 -2.34,10.86c3.45,2.33 7.17,-0.87 13.66,3.65c1.28,-6 -4.11,-10.45 -4.11,-10.45" class="logo_svg__cls-1"/>
  <path id="svg_4" d="m17.098571,9.971099c0.4,8.44 -4.25,12.93 -4.25,12.93s6.21,5.19 3.58,12.24c1.46,0.42 4.14,9.93 4.14,9.93s-0.4,-9 1,-11.68a9.77,9.77 0 0 1 -0.56,-0.83c1.07,-3.93 0.72,-6.25 0.35,-7s-0.45,-0.77 -1.07,-0.82a9.13,9.13 0 0 1 -1.63,-0.23c-1.29,-0.34 -1.54,-0.64 -1.64,-1.38s0.6,-1.19 2,-1c1.58,0.24 3.29,0.95 3.89,1.87c0.05,0.21 -0.65,4.38 -0.58,4.5c0.24,0.37 0.67,1.14 0.67,1.14c1.63,-7.86 4.22,-15 -5.87,-19.71" class="logo_svg__cls-1"/>
 </g>
</svg>