<svg id="ART" xmlns="http://www.w3.org/2000/svg" viewBox="0 0 48 48"><defs><style>.cls-1{fill:#047268;}.cls-2{fill:#353740;}</style></defs><title>FINAL_5_Internal Users Database</title><path class="cls-1" d="M7.15,31.09v6.7c0,1.88,7.55,3.41,16.85,3.41s16.85-1.53,16.85-3.41v-6.7Z"/><ellipse class="cls-2" cx="24" cy="31.09" rx="16.85" ry="3.4"/><path class="cls-1" d="M7.15,20.65v6.7c0,1.88,7.55,3.41,16.85,3.41s16.85-1.53,16.85-3.41v-6.7Z"/><path class="cls-2" d="M40.85,20.65c0,1.88-7.55,3.4-16.85,3.4S7.15,22.53,7.15,20.65,14.7,17.24,24,17.24,40.85,18.77,40.85,20.65Z"/><path class="cls-1" d="M7.15,10.21v6.7c0,1.88,7.55,3.41,16.85,3.41s16.85-1.53,16.85-3.41v-6.7Z"/><path class="cls-2" d="M40.85,10.21c0,1.88-7.55,3.4-16.85,3.4S7.15,12.09,7.15,10.21,14.7,6.8,24,6.8,40.85,8.33,40.85,10.21Z"/></svg>