<svg id="ART" xmlns="http://www.w3.org/2000/svg" viewBox="0 0 48 48"><defs><style>.cls-1{fill:#047268;}.cls-2{fill:#353740;}</style></defs><title>FINAL_1_Role Mappings</title><path class="cls-1" d="M31.14,36.89H26.38a1,1,0,0,1-.95-1V12.06a1,1,0,0,1,.95-1h4.76a1,1,0,0,0,1-1V9.22a1,1,0,0,0-1-1H26.38a3.82,3.82,0,0,0-3.81,3.82v10a.51.51,0,0,1-.51.51h-5.2a1,1,0,0,0-1,1v.92a1,1,0,0,0,1,1h5.2a.51.51,0,0,1,.51.51v10a3.82,3.82,0,0,0,3.81,3.82h4.76a1,1,0,0,0,1-1v-.91A1,1,0,0,0,31.14,36.89Z"/><path class="cls-2" d="M35,5.38a4.3,4.3,0,1,0,4.3,4.3A4.3,4.3,0,0,0,35,5.38ZM37.22,9,35,11.27h0l-.17.17a.64.64,0,0,1-.93,0l-.17-.17h0l-.95-.95a.64.64,0,0,1,0-.92l.17-.18a.67.67,0,0,1,.93,0l.48.49,1.81-1.8a.64.64,0,0,1,.92,0l.17.17A.65.65,0,0,1,37.22,9Z"/><circle class="cls-2" cx="34.98" cy="24" r="4.3"/><path class="cls-2" d="M35,34a4.3,4.3,0,1,0,4.3,4.29A4.3,4.3,0,0,0,35,34Zm2.24,3.62L35,39.92h0l-.17.17a.66.66,0,0,1-.93,0l-.17-.17h0l-.95-1a.65.65,0,0,1,0-.93l.17-.17a.67.67,0,0,1,.93,0l.48.49,1.81-1.8a.64.64,0,0,1,.92,0l.17.17A.64.64,0,0,1,37.22,37.65Z"/><circle class="cls-2" cx="13.02" cy="9.68" r="4.3"/><path class="cls-2" d="M13,19.7a4.3,4.3,0,1,0,4.3,4.3A4.3,4.3,0,0,0,13,19.7Zm2.24,3.63L13,25.59h0l-.18.18a.62.62,0,0,1-.46.19.63.63,0,0,1-.46-.19l-.18-.18h0l-.94-.95a.64.64,0,0,1,0-.92l.17-.17a.64.64,0,0,1,.92,0l.49.48,1.8-1.8a.67.67,0,0,1,.93,0l.17.18A.64.64,0,0,1,15.26,23.33Z"/><circle class="cls-2" cx="13.02" cy="38.32" r="4.3"/></svg>