<?xml version="1.0" encoding="UTF-8"?>
<svg xmlns="http://www.w3.org/2000/svg" xmlns:xlink="http://www.w3.org/1999/xlink" width="64pt" height="64pt" viewBox="0 0 64 64" version="1.1">
<g id="surface28516">
<path style=" stroke:none;fill-rule:nonzero;fill:rgb(1.568627%,44.705882%,40.784314%);fill-opacity:1;" d="M 49.921875 1.28125 C 49.59375 1.28125 49.25 1.390625 49 1.640625 L 37.480469 13.160156 C 36.980469 13.660156 36.980469 14.5 37.480469 15 C 37.730469 15.25 38.070312 15.359375 38.398438 15.359375 C 38.730469 15.359375 39.070312 15.25 39.320312 15 L 50.839844 3.480469 C 51.339844 2.980469 51.339844 2.140625 50.839844 1.640625 C 50.589844 1.390625 50.246094 1.28125 49.921875 1.28125 Z M 35.800781 5.121094 C 35.300781 5.128906 34.835938 5.429688 34.640625 5.921875 L 32.078125 12.320312 C 31.820312 12.976562 32.144531 13.734375 32.800781 14 C 32.953125 14.066406 33.121094 14.078125 33.28125 14.078125 C 33.785156 14.078125 34.273438 13.78125 34.480469 13.28125 L 37.039062 6.878906 C 37.300781 6.226562 36.976562 5.464844 36.320312 5.199219 C 36.15625 5.136719 35.964844 5.113281 35.800781 5.121094 Z M 3.839844 19.199219 C 1.726562 19.199219 0 20.941406 0 23.039062 L 0.0390625 33.160156 C 0.0390625 35.070312 1.371094 36.730469 3.320312 37.121094 C 3.503906 37.144531 3.699219 37.160156 3.878906 37.160156 C 3.964844 37.160156 4.035156 37.125 4.121094 37.121094 C 4.265625 37.109375 4.421875 37.101562 4.558594 37.078125 C 4.75 37.050781 4.898438 37.011719 5.078125 36.960938 C 5.089844 36.953125 5.109375 36.925781 5.121094 36.921875 L 5.121094 26.878906 C 5.121094 26.175781 5.695312 25.601562 6.398438 25.601562 C 7.105469 25.601562 7.679688 26.175781 7.679688 26.878906 L 7.679688 34.839844 C 7.960938 34.664062 8.246094 34.558594 8.558594 34.558594 C 9.570312 34.558594 10.539062 34.675781 11.640625 34.921875 L 13.160156 35.28125 C 18.144531 36.441406 22.496094 39.890625 25.121094 44.761719 C 28.171875 50.308594 33.976562 53.761719 40.28125 53.761719 C 40.519531 53.761719 40.769531 53.769531 41 53.761719 C 48.808594 53.515625 55.515625 47.703125 57.199219 40.28125 C 57.875 40.691406 58.671875 40.960938 59.519531 40.960938 C 61.988281 40.960938 64 38.949219 64 36.480469 C 64 34.011719 61.988281 32 59.519531 32 C 58.671875 32 57.875 32.269531 57.199219 32.679688 C 56.523438 29.644531 55.054688 26.828125 52.839844 24.519531 C 49.539062 21.078125 45.085938 19.199219 40.320312 19.199219 L 34.71875 19.199219 C 34.261719 19.199219 33.828125 19.441406 33.601562 19.839844 L 28.160156 29.480469 L 28.160156 20.480469 C 28.160156 19.773438 27.585938 19.199219 26.878906 19.199219 Z M 59.519531 34.558594 C 60.578125 34.558594 61.441406 35.421875 61.441406 36.480469 C 61.441406 37.539062 60.578125 38.398438 59.519531 38.398438 C 58.460938 38.398438 57.601562 37.539062 57.601562 36.480469 C 57.601562 35.421875 58.460938 34.558594 59.519531 34.558594 Z M 59.519531 34.558594 "/>
</g>
</svg>
