<?xml version="1.0" encoding="UTF-8"?>
<svg xmlns="http://www.w3.org/2000/svg" xmlns:xlink="http://www.w3.org/1999/xlink" width="250pt" height="250pt" viewBox="0 0 250 250" version="1.1">
<g id="surface28476">
<path style=" stroke:none;fill-rule:nonzero;fill:rgb(1.568627%,44.705882%,40.784314%);fill-opacity:1;" d="M 195 5 C 193.730469 5 192.382812 5.429688 191.40625 6.40625 L 146.40625 51.40625 C 144.453125 53.359375 144.453125 56.640625 146.40625 58.59375 C 147.382812 59.570312 148.710938 60 150 60 C 151.289062 60 152.617188 59.570312 153.59375 58.59375 L 198.59375 13.59375 C 200.546875 11.640625 200.546875 8.359375 198.59375 6.40625 C 197.617188 5.429688 196.269531 5 195 5 Z M 139.84375 20 C 137.890625 20.039062 136.074219 21.210938 135.3125 23.125 L 125.3125 48.125 C 124.296875 50.683594 125.566406 53.652344 128.125 54.6875 C 128.730469 54.941406 129.375 55 130 55 C 131.972656 55 133.886719 53.828125 134.6875 51.875 L 144.6875 26.875 C 145.703125 24.316406 144.433594 21.347656 141.875 20.3125 C 141.230469 20.058594 140.488281 19.980469 139.84375 20 Z M 15 75 C 6.738281 75 0 81.796875 0 90 L 0.15625 129.53125 C 0.15625 136.992188 5.351562 143.476562 12.96875 145 C 13.691406 145.097656 14.453125 145.15625 15.15625 145.15625 C 15.488281 145.15625 15.761719 145.019531 16.09375 145 C 16.660156 144.960938 17.265625 144.921875 17.8125 144.84375 C 18.554688 144.726562 19.140625 144.570312 19.84375 144.375 C 19.882812 144.355469 19.960938 144.238281 20 144.21875 L 20 105 C 20 102.246094 22.246094 100 25 100 C 27.753906 100 30 102.246094 30 105 L 30 136.09375 C 31.09375 135.410156 32.207031 135 33.4375 135 C 37.382812 135 41.171875 135.449219 45.46875 136.40625 L 51.40625 137.8125 C 70.878906 142.34375 87.871094 155.820312 98.125 174.84375 C 110.039062 196.523438 132.714844 210 157.34375 210 C 158.28125 210 159.257812 210.039062 160.15625 210 C 190.664062 209.042969 216.855469 186.347656 223.4375 157.34375 C 226.074219 158.945312 229.179688 160 232.5 160 C 242.148438 160 250 152.148438 250 142.5 C 250 132.851562 242.148438 125 232.5 125 C 229.179688 125 226.074219 126.054688 223.4375 127.65625 C 220.800781 115.800781 215.058594 104.804688 206.40625 95.78125 C 193.515625 82.34375 176.113281 75 157.5 75 L 135.625 75 C 133.828125 75 132.148438 75.9375 131.25 77.5 L 110 115.15625 L 110 80 C 110 77.246094 107.753906 75 105 75 Z M 232.5 135 C 236.640625 135 240 138.359375 240 142.5 C 240 146.640625 236.640625 150 232.5 150 C 228.359375 150 225 146.640625 225 142.5 C 225 138.359375 228.359375 135 232.5 135 Z M 232.5 135 "/>
</g>
</svg>
