<?xml version="1.0" encoding="UTF-8"?>
<svg xmlns="http://www.w3.org/2000/svg" xmlns:xlink="http://www.w3.org/1999/xlink" width="100pt" height="100pt" viewBox="0 0 100 100" version="1.1">
<g id="surface188989">
<path style=" stroke:none;fill-rule:nonzero;fill:rgb(1.568627%,44.705882%,40.784314%);fill-opacity:1;" d="M 78 2 C 77.492188 2 76.953125 2.171875 76.5625 2.5625 L 58.5625 20.5625 C 57.78125 21.34375 57.78125 22.65625 58.5625 23.4375 C 58.953125 23.828125 59.484375 24 60 24 C 60.515625 24 61.046875 23.828125 61.4375 23.4375 L 79.4375 5.4375 C 80.21875 4.65625 80.21875 3.34375 79.4375 2.5625 C 79.046875 2.171875 78.507812 2 78 2 Z M 55.9375 8 C 55.15625 8.015625 54.429688 8.484375 54.125 9.25 L 50.125 19.25 C 49.71875 20.273438 50.226562 21.460938 51.25 21.875 C 51.492188 21.976562 51.75 22 52 22 C 52.789062 22 53.554688 21.53125 53.875 20.75 L 57.875 10.75 C 58.28125 9.726562 57.773438 8.539062 56.75 8.125 C 56.492188 8.023438 56.195312 7.992188 55.9375 8 Z M 6 30 C 2.695312 30 0 32.71875 0 36 L 0.0625 51.8125 C 0.0625 54.796875 2.140625 57.390625 5.1875 58 C 5.476562 58.039062 5.78125 58.0625 6.0625 58.0625 C 6.195312 58.0625 6.304688 58.007812 6.4375 58 C 6.664062 57.984375 6.90625 57.96875 7.125 57.9375 C 7.421875 57.890625 7.65625 57.828125 7.9375 57.75 C 7.953125 57.742188 7.984375 57.695312 8 57.6875 L 8 42 C 8 40.898438 8.898438 40 10 40 C 11.101562 40 12 40.898438 12 42 L 12 54.4375 C 12.4375 54.164062 12.882812 54 13.375 54 C 14.953125 54 16.46875 54.179688 18.1875 54.5625 L 20.5625 55.125 C 28.351562 56.9375 35.148438 62.328125 39.25 69.9375 C 44.015625 78.609375 53.085938 84 62.9375 84 C 63.3125 84 63.703125 84.015625 64.0625 84 C 76.265625 83.617188 86.742188 74.539062 89.375 62.9375 C 90.429688 63.578125 91.671875 64 93 64 C 96.859375 64 100 60.859375 100 57 C 100 53.140625 96.859375 50 93 50 C 91.671875 50 90.429688 50.421875 89.375 51.0625 C 88.320312 46.320312 86.023438 41.921875 82.5625 38.3125 C 77.40625 32.9375 70.445312 30 63 30 L 54.25 30 C 53.53125 30 52.859375 30.375 52.5 31 L 44 46.0625 L 44 32 C 44 30.898438 43.101562 30 42 30 Z M 93 54 C 94.65625 54 96 55.34375 96 57 C 96 58.65625 94.65625 60 93 60 C 91.34375 60 90 58.65625 90 57 C 90 55.34375 91.34375 54 93 54 Z M 93 54 "/>
</g>
</svg>
