<?xml version="1.0" encoding="UTF-8"?>
<svg xmlns="http://www.w3.org/2000/svg" xmlns:xlink="http://www.w3.org/1999/xlink" width="150pt" height="150pt" viewBox="0 0 150 150" version="1.1">
<g id="surface189832">
<path style=" stroke:none;fill-rule:nonzero;fill:rgb(1.568627%,44.705882%,40.784314%);fill-opacity:1;" d="M 117 3 C 116.238281 3 115.429688 3.257812 114.84375 3.84375 L 87.84375 30.84375 C 86.671875 32.015625 86.671875 33.984375 87.84375 35.15625 C 88.429688 35.742188 89.226562 36 90 36 C 90.773438 36 91.570312 35.742188 92.15625 35.15625 L 119.15625 8.15625 C 120.328125 6.984375 120.328125 5.015625 119.15625 3.84375 C 118.570312 3.257812 117.761719 3 117 3 Z M 83.90625 12 C 82.734375 12.023438 81.644531 12.726562 81.1875 13.875 L 75.1875 28.875 C 74.578125 30.410156 75.339844 32.191406 76.875 32.8125 C 77.238281 32.964844 77.625 33 78 33 C 79.183594 33 80.332031 32.296875 80.8125 31.125 L 86.8125 16.125 C 87.421875 14.589844 86.660156 12.808594 85.125 12.1875 C 84.738281 12.035156 84.292969 11.988281 83.90625 12 Z M 9 45 C 4.042969 45 0 49.078125 0 54 L 0.09375 77.71875 C 0.09375 82.195312 3.210938 86.085938 7.78125 87 C 8.214844 87.058594 8.671875 87.09375 9.09375 87.09375 C 9.292969 87.09375 9.457031 87.011719 9.65625 87 C 9.996094 86.976562 10.359375 86.953125 10.6875 86.90625 C 11.132812 86.835938 11.484375 86.742188 11.90625 86.625 C 11.929688 86.613281 11.976562 86.542969 12 86.53125 L 12 63 C 12 61.347656 13.347656 60 15 60 C 16.652344 60 18 61.347656 18 63 L 18 81.65625 C 18.65625 81.246094 19.324219 81 20.0625 81 C 22.429688 81 24.703125 81.269531 27.28125 81.84375 L 30.84375 82.6875 C 42.527344 85.40625 52.722656 93.492188 58.875 104.90625 C 66.023438 117.914062 79.628906 126 94.40625 126 C 94.96875 126 95.554688 126.023438 96.09375 126 C 114.398438 125.425781 130.113281 111.808594 134.0625 94.40625 C 135.644531 95.367188 137.507812 96 139.5 96 C 145.289062 96 150 91.289062 150 85.5 C 150 79.710938 145.289062 75 139.5 75 C 137.507812 75 135.644531 75.632812 134.0625 76.59375 C 132.480469 69.480469 129.035156 62.882812 123.84375 57.46875 C 116.109375 49.40625 105.667969 45 94.5 45 L 81.375 45 C 80.296875 45 79.289062 45.5625 78.75 46.5 L 66 69.09375 L 66 48 C 66 46.347656 64.652344 45 63 45 Z M 139.5 81 C 141.984375 81 144 83.015625 144 85.5 C 144 87.984375 141.984375 90 139.5 90 C 137.015625 90 135 87.984375 135 85.5 C 135 83.015625 137.015625 81 139.5 81 Z M 139.5 81 "/>
</g>
</svg>
