<svg id="ART" xmlns="http://www.w3.org/2000/svg" viewBox="0 0 48 48"><defs><style>.cls-1{fill:#353740;}.cls-2{fill:#047268;}</style></defs><title>FINAL_0_SG_icon</title><path class="cls-1" d="M35.5,7.07c-6.39-8-23.25-8-26,10a7.13,7.13,0,0,0,4.67-3.61c2.5-4.59,10-8,15.83-3.84a4.64,4.64,0,0,1,4.22-2.72,4.51,4.51,0,0,1,1.33.2"/><path class="cls-2" d="M29.71,10.24c-6.43-4.56-13,.91-13,.91,0,.75,0,1.53,0,1.53a10.22,10.22,0,0,1,8-1.22c0-.43,0-1.41,0-1.41a14.1,14.1,0,0,1,5,2.88,4.74,4.74,0,0,1-.22-1.42,4.43,4.43,0,0,1,.18-1.27"/><path class="cls-1" d="M20.68,24.06a16,16,0,0,0,4-11.9C20.6,10.9,13,12.91,13.47,20c.64,9.59-2.34,10.86-2.34,10.86,3.45,2.33,7.17-.87,13.66,3.65,1.28-6-4.11-10.45-4.11-10.45"/><path class="cls-1" d="M25.67,11.07C26.07,19.51,21.42,24,21.42,24S27.63,29.19,25,36.24c1.46.42,4.14,9.93,4.14,9.93s-.4-9,1-11.68a9.77,9.77,0,0,1-.56-.83c1.07-3.93.72-6.25.35-7s-.45-.77-1.07-.82a9.13,9.13,0,0,1-1.63-.23c-1.29-.34-1.54-.64-1.64-1.38s.6-1.19,2-1c1.58.24,3.29.95,3.89,1.87.05.21-.65,4.38-.58,4.5.24.37.67,1.14.67,1.14,1.63-7.86,4.22-15-5.87-19.71"/></svg>