<svg id="ART" xmlns="http://www.w3.org/2000/svg" viewBox="0 0 48 48"><defs><style>.cls-1{fill:#047268;}.cls-2{fill:#353740;}</style></defs><title>FINAL_8_Purge Cache</title><circle class="cls-1" cx="24" cy="24" r="15.31" transform="translate(-9.94 24) rotate(-45)"/><path class="cls-2" d="M6.17,21.27v7.46a.46.46,0,0,0,.76.34l7.26-6.42a.79.79,0,0,0-.52-1.38Z"/><path class="cls-2" d="M36.16,15.8h0a2.76,2.76,0,0,0,2-4.61,19.1,19.1,0,0,0-32.92,9,18.84,18.84,0,0,0,.26,8.8.73.73,0,0,0,1.19.36l3.77-3.38a13.61,13.61,0,0,1,23.64-11A2.73,2.73,0,0,0,36.16,15.8Z"/><path class="cls-2" d="M41.83,26.73V19.27a.46.46,0,0,0-.76-.34l-7.26,6.42a.79.79,0,0,0,.52,1.38Z"/><path class="cls-2" d="M11.84,32.2h0a2.76,2.76,0,0,0-2,4.61,19.1,19.1,0,0,0,32.92-9,18.84,18.84,0,0,0-.26-8.8.73.73,0,0,0-1.19-.36l-3.77,3.38a13.61,13.61,0,0,1-23.64,11A2.73,2.73,0,0,0,11.84,32.2Z"/></svg>