<svg id="ART" xmlns="http://www.w3.org/2000/svg" viewBox="0 0 48 48"><defs><style>.cls-1{fill:#353740;}.cls-2{fill:#047268;}</style></defs><title>FINAL_2_Roles</title><path class="cls-1" d="M39.7,38.92l-1.18-3a10.67,10.67,0,0,0-9.91-6.71H19.39A10.67,10.67,0,0,0,9.48,36l-1.18,3a1,1,0,0,0,.64,1.38A50.85,50.85,0,0,0,24,42.42,50.85,50.85,0,0,0,39.06,40.3,1,1,0,0,0,39.7,38.92Z"/><path class="cls-2" d="M28.61,29.26H19.39l-.57,0A10.51,10.51,0,0,0,24,37.16a10.51,10.51,0,0,0,5.18-7.88Z"/><path class="cls-1" d="M25,5.58H23a8.19,8.19,0,0,0-8.17,7.67,4.48,4.48,0,0,0,.08,1l.78,3.8H32.33l.78-3.8a4.48,4.48,0,0,0,.08-1A8.19,8.19,0,0,0,25,5.58Z"/><path class="cls-1" d="M25,6.74H23A8.19,8.19,0,0,0,14.85,14a2.7,2.7,0,0,1,0,.28l.78,3.8H32.33l.78-3.8a2.7,2.7,0,0,1,0-.28A8.19,8.19,0,0,0,25,6.74Z"/><path class="cls-2" d="M31.89,20.57V13.2L24,9.51,16.11,13.2v7.37a5.28,5.28,0,0,0,2.65,4.59h0a10.44,10.44,0,0,0,10.48,0h0A5.28,5.28,0,0,0,31.89,20.57Z"/><path class="cls-2" d="M17.11,20.05h-1a1.33,1.33,0,0,1-1.34-1.33V17.44a1.33,1.33,0,0,1,1.34-1.33h0Z"/><path class="cls-2" d="M30.89,20.05h1a1.33,1.33,0,0,0,1.34-1.33V17.44a1.33,1.33,0,0,0-1.34-1.33h0Z"/><path class="cls-1" d="M28.39,9.59V8L15.92,10.55V15h7.62A4.85,4.85,0,0,0,27.2,13.3a1,1,0,0,1,1.61.09,3.61,3.61,0,0,0,3,1.58h.43V10.63Z"/><path class="cls-1" d="M29.74,11.4a1.5,1.5,0,0,0-1.06.44l-1.29,1.29a1,1,0,0,1,1.42.26,3.61,3.61,0,0,0,3,1.58h.07v-.36a4.13,4.13,0,0,0-1-2.7h0a1.52,1.52,0,0,0-1.14-.51Z"/><path class="cls-2" d="M27.22,27l-.55-2.2h-5.3L20.83,27a3.2,3.2,0,0,1-1.6,2.06l-.35.19-.05.24c.47.55,2.6,1,5.17,1s4.7-.42,5.17-1l-.05-.24-.34-.19A3.19,3.19,0,0,1,27.22,27Z"/></svg>