<svg id="ART" xmlns="http://www.w3.org/2000/svg" viewBox="0 0 48 48"><defs><style>.cls-1{fill:#fff;}.cls-2{fill:#047268;}</style></defs><title>FINAL_7_System Status</title><path class="cls-1" d="M36.43,24v0A4.14,4.14,0,0,1,37.63,21l2.74-2.77a2,2,0,0,0,.31-2.4l-1.3-2.25a2,2,0,0,0-2.23-.93l-3.81,1a4.1,4.1,0,0,1-3.19-.45h0a4.12,4.12,0,0,1-1.85-2.44L27.22,7A2,2,0,0,0,25.3,5.49H22.7A2,2,0,0,0,20.78,7l-1.05,3.82a4.12,4.12,0,0,1-1.85,2.44h0a4.1,4.1,0,0,1-3.19.45l-3.81-1a2,2,0,0,0-2.23.93l-1.3,2.25a2,2,0,0,0,.31,2.4l2.87,2.9A3.9,3.9,0,0,1,11.57,24v0a3.9,3.9,0,0,1-1.07,2.81l-2.87,2.9a2,2,0,0,0-.31,2.4l1.3,2.25a2,2,0,0,0,2.23.93l4-1a3.86,3.86,0,0,1,3,.47l.09.06a3.81,3.81,0,0,1,1.79,2.28l1.09,4a2,2,0,0,0,1.92,1.47h2.6A2,2,0,0,0,27.22,41l1.06-3.84a4,4,0,0,1,1.82-2.4l.21-.13a3.72,3.72,0,0,1,2.86-.4l4,1a2,2,0,0,0,2.23-.93l1.3-2.25a2,2,0,0,0-.31-2.4L37.63,27A4.14,4.14,0,0,1,36.43,24Z"/><path class="cls-2" d="M29.14,24A5.14,5.14,0,1,1,24,18.86,5.14,5.14,0,0,1,29.14,24Z"/></svg>